<svg width="1440" height="510" viewBox="0 0 1440 510" fill="none" xmlns="http://www.w3.org/2000/svg">
<mask id="mask0_29_464" style="mask-type:alpha" maskUnits="userSpaceOnUse" x="-90" y="0" width="1611" height="510">
<rect x="-89.1937" y="0.772461" width="1609.39" height="508.632" fill="#D9D9D9"/>
</mask>
<g mask="url(#mask0_29_464)">
<path d="M1517.66 0.772461H-89.5199V1286.51H1517.66V0.772461Z" fill="#55B328"/>
<mask id="mask1_29_464" style="mask-type:luminance" maskUnits="userSpaceOnUse" x="-90" y="0" width="1611" height="1287">
<path d="M-89.1934 1286.51L1520.19 1286.51L1520.19 0.772461L-89.1934 0.772461L-89.1934 1286.51Z" fill="white"/>
</mask>
<g mask="url(#mask1_29_464)">
<path fill-rule="evenodd" clip-rule="evenodd" d="M186.965 379.966C186.965 379.966 230.987 396.716 299.769 396.992C368.551 397.268 586.524 410.1 586.524 410.1C571.193 397.833 566.435 406.56 566.435 406.56C550.112 382.49 523.305 380.192 523.305 380.192C506.178 329.013 494.313 343.779 494.313 343.779C439.279 217.452 424.777 348.073 424.777 348.073C402.678 352.229 421.512 367.272 421.512 367.272C383.769 334.626 370.698 380.92 370.698 380.92C333.457 241.661 304.151 343.628 304.151 343.628C298.902 313.318 285.58 324.669 285.58 324.669C267.525 203.804 216.873 234.78 216.873 234.78C211.499 206.855 179.695 234.089 179.695 234.089C179.695 234.089 195.252 199.912 177.925 170.769C160.597 141.626 126.733 156.593 110.184 194.199C110.184 194.199 95.5692 166.99 83.5405 207.621C83.5405 207.621 60.6382 197.702 53.5817 274.168C53.5817 274.168 40.3099 255.723 19.6803 284.627C-0.949333 313.532 -25.0068 397.795 -25.0068 397.795C-25.0068 397.795 108.866 425.168 177.761 427.252C246.656 429.336 186.965 379.966 186.965 379.966Z" fill="url(#paint0_linear_29_464)"/>
<path fill-rule="evenodd" clip-rule="evenodd" d="M415.335 354.2C413.138 358.143 436.078 371.352 450.894 381.723C465.71 392.094 445.871 360.378 435.324 354.238C424.777 348.098 418.75 348.11 415.335 354.2Z" fill="white"/>
<path fill-rule="evenodd" clip-rule="evenodd" d="M382.915 363.153C390.587 354.289 405.805 352.732 429.373 373.022C452.94 393.313 450.982 394.493 450.894 395.234C450.806 395.975 381.509 396.766 382.915 363.153Z" fill="white"/>
<path fill-rule="evenodd" clip-rule="evenodd" d="M496.623 342.197C491.387 343.453 493.27 373.298 499.285 385.515C505.299 397.733 516.524 385.415 519.249 376.287C521.974 367.159 509.267 339.096 496.623 342.197Z" fill="white"/>
<path fill-rule="evenodd" clip-rule="evenodd" d="M504.533 397.846C504.533 397.846 511.1 381.159 529.896 382.691C548.693 384.223 560.257 399.453 560.734 402.706C561.211 405.958 527.812 397.545 504.533 397.846Z" fill="white"/>
<path fill-rule="evenodd" clip-rule="evenodd" d="M445.733 400.056C445.733 400.056 449.374 395.034 459.896 395.649C470.418 396.264 476.119 401.111 476.307 401.626C476.496 402.14 445.733 400.056 445.733 400.056Z" fill="white"/>
<path fill-rule="evenodd" clip-rule="evenodd" d="M430.854 323.024C430.641 338.706 456.895 366.204 475.968 375.019C495.041 383.833 495.179 353.385 490.847 335.906C486.515 318.428 471.347 290.968 454.66 288.369C437.973 285.77 430.929 316.57 430.854 323.024Z" fill="white"/>
<path fill-rule="evenodd" clip-rule="evenodd" d="M455.213 367.309C451.886 366.795 454.66 376.212 461.491 378.61C468.321 381.008 468.635 369.331 455.213 367.309Z" fill="white"/>
<path fill-rule="evenodd" clip-rule="evenodd" d="M373.712 387.374C373.712 387.374 362.172 333.22 343.426 316.897C324.68 300.574 308.169 327.545 306.248 347.659C304.327 367.774 373.712 387.374 373.712 387.374Z" fill="white"/>
<path fill-rule="evenodd" clip-rule="evenodd" d="M305.997 362.387C307.754 361.922 328.359 370.209 332.465 374.943C336.571 379.677 326.388 380.154 314.886 375.571C303.385 370.988 305.997 362.387 305.997 362.387Z" fill="white"/>
<path fill-rule="evenodd" clip-rule="evenodd" d="M305.394 352.343C305.394 352.343 306.913 330.722 296.705 324.833C286.497 318.944 275.862 337.339 274.606 344.244C273.351 351.15 307.177 358.483 307.867 358.872C308.558 359.262 305.394 352.343 305.394 352.343Z" fill="white"/>
<path fill-rule="evenodd" clip-rule="evenodd" d="M280.633 353.095C277.884 353.296 287.1 360.629 293.064 362.035C299.028 363.441 303.95 360.779 302.556 360.089C301.162 359.398 287.075 352.631 280.633 353.095Z" fill="white"/>
<path fill-rule="evenodd" clip-rule="evenodd" d="M400.167 389.709C401.724 388.554 424.664 395.874 426.535 396.427C428.406 396.979 412.146 398.109 405.541 395.673C398.937 393.238 400.167 389.709 400.167 389.709Z" fill="white"/>
<path fill-rule="evenodd" clip-rule="evenodd" d="M425.694 398.8C425.694 398.8 426.221 395.95 430.352 397.67C434.483 399.39 425.694 398.8 425.694 398.8Z" fill="white"/>
<path fill-rule="evenodd" clip-rule="evenodd" d="M212.353 242.69C212.353 242.69 219.058 214.439 250.022 237.831C280.985 261.223 281.412 319.446 279.792 324.983C278.172 330.52 248.967 331.776 226.316 309.388C203.665 287.001 212.353 242.69 212.353 242.69Z" fill="white"/>
<path fill-rule="evenodd" clip-rule="evenodd" d="M250.524 336.384C242.588 335.517 246.657 347.169 256.802 352.594C266.947 358.018 262.678 337.715 250.524 336.384Z" fill="white"/>
<path fill-rule="evenodd" clip-rule="evenodd" d="M257.028 335.92C254.517 335.92 255.659 337.452 259.225 340.151C262.791 342.851 260.456 336.02 257.028 335.92Z" fill="white"/>
<path fill-rule="evenodd" clip-rule="evenodd" d="M244.648 354.276C245.338 353.02 262.967 352.254 282.818 366.317C302.669 380.38 303.51 389.144 300.698 390.312C297.885 391.479 227.169 386.796 244.648 354.276Z" fill="white"/>
<g style="mix-blend-mode:multiply" opacity="0.3">
<path fill-rule="evenodd" clip-rule="evenodd" d="M462.671 370.134C469.263 374.943 464.442 382.464 463.927 383.217C463.412 383.971 466.903 389.784 475.064 395.033C478.995 397.424 482.724 400.133 486.214 403.131C486.214 403.131 483.703 396.339 475.001 391.278C475.001 391.278 485.26 388.767 494.677 391.919C504.094 395.07 505.525 400.783 505.525 400.783C505.525 400.783 503.805 395.761 506.09 393.25C508.375 390.738 505.739 392.547 500.528 388.164C495.317 383.782 494.137 369.644 494.137 369.644C494.137 369.644 491.475 377.454 481.204 377.178C470.933 376.902 451.973 361.696 451.973 361.696C455.363 364.726 458.936 367.544 462.671 370.134Z" fill="#D6C1FF"/>
</g>
<g style="mix-blend-mode:multiply" opacity="0.3">
<path fill-rule="evenodd" clip-rule="evenodd" d="M424.94 369.368C424.94 369.368 431.218 371.076 444.779 378.559C458.339 386.043 460.625 392.735 461.014 393.388C461.403 394.041 454.736 393.915 448.018 388.767C441.301 383.619 424.94 369.368 424.94 369.368Z" fill="#D6C1FF"/>
</g>
<path fill-rule="evenodd" clip-rule="evenodd" d="M111.628 191.097C107.862 204.62 171.697 334.927 185.709 351.375C199.722 367.824 202.208 226.53 187.241 184.38C172.274 142.229 138.662 144.589 111.628 191.097Z" fill="white"/>
<path fill-rule="evenodd" clip-rule="evenodd" d="M204.606 225.602C199.797 231.729 199.031 237.015 201.078 247.588C203.125 258.16 214.048 236.287 212.378 230.009C210.709 223.731 207.444 221.998 204.606 225.602Z" fill="white"/>
<path fill-rule="evenodd" clip-rule="evenodd" d="M95.8831 188.448C90.4213 192.391 82.4356 197.438 96.5235 227.987C110.611 258.536 134.82 280.421 137.117 281.664C139.415 282.907 111.993 176.808 95.8831 188.448Z" fill="white"/>
<path fill-rule="evenodd" clip-rule="evenodd" d="M65.5853 223.014C60.5629 231.59 63.7145 250.123 82.0464 262.001C100.378 273.879 111.754 273.088 115.747 273.163C119.74 273.239 82.1719 194.901 65.5853 223.014Z" fill="white"/>
<path fill-rule="evenodd" clip-rule="evenodd" d="M18.2238 286.787C18.2238 286.787 25.2427 252.421 80.8912 274.683C136.54 296.945 180.084 372.508 183.512 376.199C186.94 379.89 73.8472 369.921 31.0184 363.178C-11.8103 356.436 3.93499 317.361 18.2238 286.787Z" fill="white"/>
<path fill-rule="evenodd" clip-rule="evenodd" d="M106.254 282.142C105.777 286.474 118.685 297.21 126.344 300.7C134.003 304.191 126.646 290.655 121.736 282.758C116.827 274.86 106.493 280.083 106.254 282.142Z" fill="white"/>
<path fill-rule="evenodd" clip-rule="evenodd" d="M212.291 301.139C202.082 297.096 202.823 309.225 209.365 319.333C215.907 329.44 230.911 329.616 231.464 327.569C232.016 325.523 227.32 307.065 212.291 301.139Z" fill="white"/>
<path fill-rule="evenodd" clip-rule="evenodd" d="M146.735 292.575C145.354 292.676 147.087 298.138 150.201 299.757C153.315 301.377 154.947 292.073 146.735 292.575Z" fill="white"/>
<g style="mix-blend-mode:multiply" opacity="0.3">
<path fill-rule="evenodd" clip-rule="evenodd" d="M131.944 310.556C152.034 326.427 140.733 305.069 138.348 298.841C135.962 292.613 142.542 306.5 146.672 312.929C150.803 319.357 151.695 314.687 155.022 319.496C158.35 324.305 154.043 319.772 156.077 330.043C158.111 340.314 161.602 344.633 171.307 351.915C181.013 359.198 182.319 348.663 188.384 356.009C194.448 363.354 204.029 375.772 204.707 378.384C205.385 380.995 192.565 379.451 182.106 372.821C171.647 366.192 167.038 346.78 153.013 333.056C145.604 325.927 138.571 318.417 131.944 310.556Z" fill="#D6C1FF"/>
</g>
<g style="mix-blend-mode:multiply" opacity="0.3">
<path fill-rule="evenodd" clip-rule="evenodd" d="M273.351 360.528C280.709 364.069 280.558 363.253 277.118 359.486C273.677 355.719 287.765 368.275 292.474 372.381C297.182 376.487 294.093 371.126 295.675 372.909C297.257 374.692 305.984 383.983 308.37 385.465C310.755 386.946 298.551 374.164 297.069 369.77C295.588 365.375 302.983 362.085 304 360.98C305.017 359.875 306.511 359.348 305.658 368.778C304.804 378.207 311.484 387.135 318.515 391.843C325.546 396.552 335.34 379.94 335.503 377.253C335.667 374.566 338.467 378.571 333.896 387.21C329.326 395.849 341.43 396.552 352.567 397.971C363.704 399.389 325.697 397.456 309.274 396.388C292.85 395.321 302.782 393.614 302.996 389.344C303.209 385.075 287.828 367.685 273.351 360.528Z" fill="#D6C1FF"/>
</g>
<g style="mix-blend-mode:multiply" opacity="0.3">
<path fill-rule="evenodd" clip-rule="evenodd" d="M54.3602 266.861C54.3602 266.861 54.6867 255.033 66.8033 256.615C78.9199 258.197 95.9962 280.949 99.0975 282.619C102.199 284.289 79.1585 272.248 69.0508 269.799C64.2165 268.53 59.311 267.549 54.3602 266.861Z" fill="#D6C1FF"/>
</g>
<g style="mix-blend-mode:multiply" opacity="0.3">
<path fill-rule="evenodd" clip-rule="evenodd" d="M86.3782 223.103C86.3782 223.103 96.7997 230.737 112.746 255.221C128.692 279.705 131.781 286.611 131.781 286.611C131.781 286.611 117.329 264.55 104.409 247.687C91.4885 230.825 86.3782 223.103 86.3782 223.103Z" fill="#D6C1FF"/>
</g>
<g style="mix-blend-mode:multiply" opacity="0.3">
<path fill-rule="evenodd" clip-rule="evenodd" d="M128.441 240.48C128.541 242.552 136.314 273.917 137.544 279.605C138.775 285.293 142.68 288.181 145.455 290.391C148.229 292.601 150.916 287.629 147.966 281.024C145.015 274.42 128.441 240.48 128.441 240.48Z" fill="#D6C1FF"/>
</g>
<path fill-rule="evenodd" clip-rule="evenodd" d="M895.316 402.78C895.316 402.78 924.86 368.665 958.913 347.157C992.965 325.648 991.483 354.565 991.483 354.565C991.483 354.565 1011.47 335.329 1020.36 357.905C1020.36 357.905 1017.41 271.657 1081.8 299.054C1081.8 299.054 1094.35 286.498 1106.23 296.832C1106.23 296.832 1120.3 251.63 1169.15 230.209C1218.01 208.789 1221.67 294.584 1221.67 294.584C1221.67 294.584 1294.36 309.765 1294.36 382.753L1232.27 385.264C1232.27 385.264 960.884 396.289 801.246 410.1C801.246 410.1 827.526 400.055 847.879 396.289C868.233 392.522 859.72 401.939 859.72 401.939C859.72 401.939 896.86 393.627 895.316 402.78Z" fill="url(#paint1_linear_29_464)"/>
<path fill-rule="evenodd" clip-rule="evenodd" d="M1101.46 329.252C1101.46 329.252 1096.06 279.555 1142.58 246.382C1189.1 213.209 1214.97 238.848 1218.13 269.498C1221.3 300.147 1168.5 288.771 1101.46 329.252Z" fill="white"/>
<path fill-rule="evenodd" clip-rule="evenodd" d="M1114.98 339.862C1114.98 339.862 1130.27 315.34 1166.53 306.638C1202.79 297.937 1221.16 328.147 1218.27 338.393C1215.38 348.638 1158.19 328.85 1114.98 339.862Z" fill="white"/>
<path fill-rule="evenodd" clip-rule="evenodd" d="M1103.31 346.792C1103.31 346.792 1117.37 335.554 1142.53 338.392C1167.69 341.23 1170.78 349.818 1166.84 351.814C1162.9 353.811 1128.42 344.57 1103.31 346.792Z" fill="white"/>
<path fill-rule="evenodd" clip-rule="evenodd" d="M1022.2 367.812C1022.2 367.812 1011.1 337.865 1033.29 311.422C1055.49 284.979 1079.56 296.167 1088.08 309.639C1096.59 323.112 1042.18 344.809 1022.2 367.812Z" fill="white"/>
<path fill-rule="evenodd" clip-rule="evenodd" d="M1076.22 334.024C1076.22 334.024 1083.26 323.791 1091.59 323.263C1099.93 322.736 1101.64 331.437 1100.28 334.024C1098.93 336.61 1077.15 333.835 1076.22 334.024Z" fill="white"/>
<path fill-rule="evenodd" clip-rule="evenodd" d="M1024.04 372.695C1024.04 372.695 1048.47 333.62 1091.77 345.071C1135.06 356.523 1143.59 378.672 1139.88 382.376C1136.18 386.08 1005.91 406.747 1024.04 372.695Z" fill="white"/>
<path fill-rule="evenodd" clip-rule="evenodd" d="M1207.89 305.081C1207.89 305.081 1215.52 294.27 1223.9 295.363C1232.27 296.455 1233.94 313.669 1232.27 322.27C1230.6 330.871 1207.89 305.081 1207.89 305.081Z" fill="white"/>
<path fill-rule="evenodd" clip-rule="evenodd" d="M898.643 399.025C898.643 399.025 923.103 363.441 954.204 350.195C985.305 336.948 990.19 344.444 990.679 358.017C991.169 371.59 936.676 379.086 898.643 399.025Z" fill="white"/>
<path fill-rule="evenodd" clip-rule="evenodd" d="M907.834 399.026C907.834 399.026 924.735 384.662 954.292 382.941C983.849 381.221 997.409 393.79 997.158 396.012C996.907 398.235 907.834 399.026 907.834 399.026Z" fill="white"/>
<path fill-rule="evenodd" clip-rule="evenodd" d="M993.002 357.528C992.563 361.797 1008.07 368.238 1013.93 371.138C1019.8 374.039 1025.51 359.486 1015.03 349.793C1004.54 340.1 993.542 352.342 993.002 357.528Z" fill="white"/>
<path fill-rule="evenodd" clip-rule="evenodd" d="M962.604 379.727C961.587 379.727 975.687 369.368 984.816 373.562C993.944 377.756 994.434 384.524 993.944 385.34C993.454 386.156 986.787 380.97 962.604 379.727Z" fill="white"/>
<g style="mix-blend-mode:multiply" opacity="0.3">
<path fill-rule="evenodd" clip-rule="evenodd" d="M1098.93 341.444C1098.93 341.444 1107.71 343.227 1113.73 341.444C1119.74 339.661 1115.51 340.527 1113.73 339.887C1111.95 339.246 1118.75 326.402 1144.96 314.586C1171.16 302.771 1176.16 302.03 1176.16 302.03C1176.16 302.03 1155.05 304.24 1123.6 317.361C1092.14 330.482 1103.72 336.785 1101.26 338.631C1098.8 340.477 1082.7 337.752 1060.68 343.742C1060.68 343.742 1086.67 337.363 1120.03 356.235C1120.03 356.235 1117.86 346.253 1107.48 346.516C1097.09 346.78 1098.93 341.444 1098.93 341.444Z" fill="#D6C1FF"/>
</g>
<g style="mix-blend-mode:multiply" opacity="0.3">
<path fill-rule="evenodd" clip-rule="evenodd" d="M1003.2 397.004C1016.87 395.749 1020.34 387.261 1025.4 386.959C1030.46 386.658 1038.71 392.12 1053.65 392.509C1068.59 392.898 1092.28 391.705 1092.28 391.705L1003.2 397.004Z" fill="#D6C1FF"/>
</g>
<path fill-rule="evenodd" clip-rule="evenodd" d="M1257.48 383.62C1257.48 383.62 1262.67 350.12 1286.73 354.565C1286.73 354.565 1281.18 312.314 1310.41 320.111C1310.41 320.111 1311.15 311.636 1321.88 316.068C1321.88 316.068 1323.74 286.097 1336.69 263.144C1349.63 240.192 1368.89 248.077 1374.81 271.544C1374.81 271.544 1389.99 255.221 1392.94 288.997C1392.94 288.997 1426.12 284.665 1437.98 324.054C1449.83 363.442 1448.34 382.779 1448.34 382.779L1257.48 383.62Z" fill="url(#paint2_linear_29_464)"/>
<path fill-rule="evenodd" clip-rule="evenodd" d="M1357.77 249.797C1341.3 244.938 1330.47 273.867 1323.2 305.044C1315.93 336.221 1315.3 341.796 1315.37 343.717C1315.43 345.638 1364.78 321.706 1371.19 300.248C1377.61 278.789 1367.29 252.61 1357.77 249.797Z" fill="white"/>
<path fill-rule="evenodd" clip-rule="evenodd" d="M1316.55 314.8C1311.74 314.599 1310.27 321.002 1307.42 332.478C1304.57 343.955 1317.46 329.591 1318.39 323.262C1319.32 316.934 1316.55 314.8 1316.55 314.8Z" fill="white"/>
<path fill-rule="evenodd" clip-rule="evenodd" d="M1305.46 319.898C1298.67 318.542 1292.5 320.752 1287.13 336.786C1281.75 352.82 1281.15 374.919 1282.26 375.295C1283.36 375.672 1304.59 356.172 1305.46 342.11C1306.01 334.716 1306.01 327.292 1305.46 319.898Z" fill="white"/>
<path fill-rule="evenodd" clip-rule="evenodd" d="M1296.07 379.965C1296.07 379.965 1316.06 357.277 1341.03 344.984C1366.01 332.692 1416.53 358.595 1421.16 366.33C1425.8 374.064 1393.34 378.76 1362.65 381.61C1331.97 384.46 1296.07 379.965 1296.07 379.965Z" fill="white"/>
<path fill-rule="evenodd" clip-rule="evenodd" d="M1374.34 284.427C1374.34 274.256 1378.11 267.288 1384.39 267.903C1390.67 268.518 1383.66 287.202 1379.37 293.869C1375.07 300.536 1374.34 284.427 1374.34 284.427Z" fill="white"/>
<path fill-rule="evenodd" clip-rule="evenodd" d="M1362.65 327.808C1362.65 327.808 1371.44 289.7 1403.32 289.562C1435.2 289.424 1435.04 349.467 1434.71 353.962C1434.39 358.457 1373.16 334.914 1362.65 327.808Z" fill="white"/>
<path fill-rule="evenodd" clip-rule="evenodd" d="M1344.27 340.591C1342.12 340.779 1352.47 330.144 1362.65 331.613C1372.84 333.082 1380.23 340.038 1380.6 341.055C1380.96 342.072 1364.83 338.833 1344.27 340.591Z" fill="white"/>
<path fill-rule="evenodd" clip-rule="evenodd" d="M1288.91 372.972C1289.92 371.241 1291.28 369.734 1292.89 368.543C1294.5 367.351 1296.34 366.5 1298.29 366.041C1302.72 365.175 1289.04 375.282 1286.99 376.462C1284.94 377.643 1288.91 372.972 1288.91 372.972Z" fill="white"/>
<path fill-rule="evenodd" clip-rule="evenodd" d="M1202.06 381.687C1202.06 381.687 1217.97 360.919 1241.29 351.816C1264.6 342.713 1273.49 357.516 1275.34 358.822C1277.18 360.128 1248.69 384.009 1202.06 381.687Z" fill="white"/>
<path fill-rule="evenodd" clip-rule="evenodd" d="M1238.74 382.628C1238.13 382.477 1249.01 375.295 1260.08 373.437C1271.16 371.579 1275.15 379.966 1274.53 380.594C1273.92 381.222 1251.75 385.893 1238.74 382.628Z" fill="white"/>
<g style="mix-blend-mode:multiply" opacity="0.3">
<path fill-rule="evenodd" clip-rule="evenodd" d="M1159.07 385.339C1159.07 385.339 1180.26 364.182 1200.32 358.821C1200.32 358.821 1181.71 368.451 1176.16 375.294C1170.61 382.138 1191.69 372.444 1218.27 361.483C1244.85 350.521 1246.47 350.069 1246.47 350.069C1246.47 350.069 1224.79 356.611 1211.48 371.49C1198.17 386.369 1180.97 385.364 1165.42 386.557C1149.88 387.75 1159.07 385.339 1159.07 385.339Z" fill="#D6C1FF"/>
</g>
<g style="mix-blend-mode:multiply" opacity="0.3">
<path fill-rule="evenodd" clip-rule="evenodd" d="M1300.53 375.296C1300.53 375.296 1311.12 350.046 1314.59 339.021C1318.05 327.997 1315.84 342.022 1315.37 347.434C1314.89 352.846 1346.68 333.861 1355.16 329.14C1363.63 324.419 1344.3 336.046 1332.22 348.878C1320.14 361.71 1300.53 375.296 1300.53 375.296Z" fill="#D6C1FF"/>
</g>
<path fill-rule="evenodd" clip-rule="evenodd" d="M626.792 301.654C621.674 303.872 616.873 306.76 612.515 310.242C612.101 310.568 611.637 311.071 611.837 311.56C611.917 311.706 612.025 311.834 612.154 311.937C612.283 312.04 612.432 312.117 612.591 312.163C617.496 314.114 622.872 314.559 628.032 313.441C633.191 312.323 637.9 309.692 641.558 305.885C642.813 304.567 643.918 302.545 642.813 301.064C642.371 300.501 641.785 300.067 641.118 299.808C638.771 298.764 636.276 298.091 633.723 297.812L626.792 301.654Z" fill="white"/>
<path fill-rule="evenodd" clip-rule="evenodd" d="M653.273 294.585C653.971 292.582 655.227 290.82 656.893 289.508C658.56 288.195 660.566 287.387 662.677 287.177C661.019 290.38 658.379 292.967 655.143 294.56L653.273 294.585Z" fill="white"/>
<path fill-rule="evenodd" clip-rule="evenodd" d="M636.221 317.249C635.947 315.906 636.18 314.51 636.876 313.329C637.572 312.149 638.681 311.268 639.988 310.858C640.545 310.651 641.152 310.616 641.729 310.757C642.306 310.898 642.828 311.208 643.228 311.649C644.22 313.093 642.976 315.026 641.608 316.119C639.96 317.42 638.063 318.369 636.033 318.906L636.221 317.249Z" fill="white"/>
<path fill-rule="evenodd" clip-rule="evenodd" d="M721.703 341.582C721.138 344.231 720.448 348.701 717.622 350.032C715.413 351.087 711.96 349.831 711.344 347.358C710.867 345.186 712.6 342.825 714.27 341.62C715.701 340.628 722.394 338.267 721.703 341.582Z" fill="white"/>
<path fill-rule="evenodd" clip-rule="evenodd" d="M523.43 256.828C523.606 260.394 523.87 264.198 526.067 267.023C527.215 268.362 528.557 269.521 530.047 270.464L536.162 274.733C536.525 275.031 536.956 275.234 537.418 275.323C537.819 275.334 538.217 275.246 538.576 275.067C538.936 274.887 539.245 274.621 539.477 274.293C544.361 268.744 539.175 259.917 535.635 255.032C531.73 249.683 522.991 247.926 523.43 256.828Z" fill="white"/>
<path fill-rule="evenodd" clip-rule="evenodd" d="M660.354 176.972C659.651 177.788 658.973 178.944 659.488 179.898C659.796 180.351 660.233 180.701 660.743 180.902C662.559 181.872 664.624 182.27 666.67 182.045C670.612 181.43 672.948 176.633 669.922 173.519C666.896 170.405 662.463 174.524 660.354 176.972Z" fill="white"/>
<path fill-rule="evenodd" clip-rule="evenodd" d="M724.327 229.067C723.113 229.848 722.247 231.066 721.908 232.469C721.569 233.872 721.783 235.352 722.507 236.601C724.089 235.529 725.37 234.069 726.227 232.361C727.085 230.653 727.49 228.754 727.404 226.845L724.327 229.067Z" fill="white"/>
<path fill-rule="evenodd" clip-rule="evenodd" d="M637.602 189.678C639.558 191.341 642.03 192.273 644.596 192.315C645.909 192.3 647.189 191.898 648.275 191.16C649.537 190.228 650.494 188.944 651.025 187.468C659.488 165.859 617.651 173.217 637.602 189.678Z" fill="white"/>
<path fill-rule="evenodd" clip-rule="evenodd" d="M650.887 200C650.581 198.527 650.637 197.001 651.05 195.555C651.278 194.839 651.75 194.225 652.382 193.819C653.015 193.413 653.769 193.241 654.516 193.332C655.27 193.629 655.883 194.201 656.231 194.934C656.578 195.666 656.634 196.503 656.386 197.275C655.806 198.8 654.777 200.113 653.436 201.042L650.887 200Z" fill="white"/>
<path fill-rule="evenodd" clip-rule="evenodd" d="M414.933 153.353C414.554 154.874 414.584 156.468 415.021 157.974C416.515 164.252 421.035 169.274 425.468 174.033C431.495 180.412 438.877 187.104 447.629 186.489C451.279 186.126 454.691 184.508 457.283 181.912C459.874 179.316 461.486 175.901 461.843 172.25C462.621 160.862 451.371 152.035 441.59 148.745C434.96 146.51 417.52 144.715 414.933 153.353Z" fill="white"/>
<path fill-rule="evenodd" clip-rule="evenodd" d="M442.104 138.212C441.564 140.723 443.36 143.31 445.57 144.553C447.933 145.642 450.501 146.216 453.104 146.235C451.499 142.74 448.627 139.984 445.068 138.526L442.104 138.212Z" fill="white"/>
<path fill-rule="evenodd" clip-rule="evenodd" d="M475.127 325.862C471.226 324.421 466.944 324.39 463.023 325.774C461.215 326.427 459.256 327.833 459.457 329.741C459.657 330.678 460.15 331.526 460.863 332.165C463.313 334.737 466.319 336.713 469.652 337.941C470.353 338.233 471.103 338.387 471.862 338.393C472.682 338.279 473.458 337.958 474.118 337.459C474.777 336.96 475.298 336.3 475.629 335.542C476.369 334.05 476.669 332.379 476.496 330.723C476.323 329.067 475.682 327.494 474.65 326.188L475.127 325.862Z" fill="white"/>
<g style="mix-blend-mode:multiply" opacity="0.5">
<path fill-rule="evenodd" clip-rule="evenodd" d="M613.997 312.69C618.823 308.415 624.692 305.492 631.011 304.214C641.382 302.205 642.763 304.214 642.763 304.214C642.763 304.214 636.058 312.878 626.44 313.732C616.822 314.585 613.997 312.69 613.997 312.69Z" fill="#D6C1FF"/>
</g>
<g style="mix-blend-mode:multiply" opacity="0.5">
<path fill-rule="evenodd" clip-rule="evenodd" d="M660.756 180.902C659.5 179.897 669.671 177.825 670.876 178.114C672.081 178.403 669.621 181.705 666.682 182.044C664.642 182.179 662.6 181.785 660.756 180.902Z" fill="#D6C1FF"/>
</g>
<g style="mix-blend-mode:multiply" opacity="0.5">
<path fill-rule="evenodd" clip-rule="evenodd" d="M526.293 263.822C525.627 260.859 536.576 267.175 538.849 270.716C541.122 274.256 541.461 276.177 534.366 272.737C527.272 269.297 526.293 263.822 526.293 263.822Z" fill="#D6C1FF"/>
</g>
<g style="mix-blend-mode:multiply" opacity="0.5">
<path fill-rule="evenodd" clip-rule="evenodd" d="M418.449 165.582C416.955 156.253 437.886 158.275 450.906 170.881C463.927 183.487 449.927 187.794 438.275 183.236C426.623 178.678 418.449 165.582 418.449 165.582Z" fill="#D6C1FF"/>
</g>
<g style="mix-blend-mode:multiply" opacity="0.5">
<path fill-rule="evenodd" clip-rule="evenodd" d="M635.556 187.857C629.554 182.106 647.886 185.484 649.594 187.857C651.301 190.23 644.772 196.646 635.556 187.857Z" fill="#D6C1FF"/>
</g>
<path fill-rule="evenodd" clip-rule="evenodd" d="M298.212 221.759C297.408 215.77 279.666 199.723 274.531 207.395C270.551 213.359 280.809 224.873 285.191 227.585C289.573 230.297 299.116 228.527 298.212 221.759Z" fill="white"/>
<path fill-rule="evenodd" clip-rule="evenodd" d="M289.046 203.477C287.682 203.345 286.379 202.847 285.274 202.036C284.169 201.225 283.303 200.131 282.768 198.869C284.513 198.951 286.188 199.581 287.554 200.669C288.92 201.758 289.908 203.251 290.377 204.934L289.046 203.477Z" fill="white"/>
<path fill-rule="evenodd" clip-rule="evenodd" d="M329.753 198.92C330.324 201.721 331.698 204.295 333.708 206.328C334.223 206.843 334.963 207.346 335.604 206.919C335.86 206.686 336.036 206.378 336.106 206.04L337.362 201.946C337.539 201.531 337.596 201.074 337.525 200.628C337.394 200.258 337.169 199.929 336.872 199.674C335.188 198.021 333.122 196.809 330.858 196.146L329.753 198.92Z" fill="white"/>
<path fill-rule="evenodd" clip-rule="evenodd" d="M290.628 244.084C288.125 242.545 286.217 240.204 285.216 237.442C285.038 237.049 284.968 236.615 285.015 236.186C285.216 235.244 286.271 234.817 287.263 234.679C289.871 234.364 292.508 234.968 294.719 236.386C296.93 237.805 298.578 239.949 299.38 242.451C299.492 242.742 299.492 243.065 299.38 243.355C299.199 243.592 298.941 243.756 298.651 243.82C296.701 244.472 294.697 244.951 292.662 245.251L290.628 244.084Z" fill="white"/>
<path fill-rule="evenodd" clip-rule="evenodd" d="M244.597 154.823C245.966 154.748 247.573 154.434 248.138 153.178C248.294 152.653 248.336 152.1 248.262 151.557C248.189 151.013 248.001 150.492 247.711 150.027C243.944 141.777 233.134 122.855 221.72 128.154C219.766 129.075 218.061 130.452 216.75 132.17C215.439 133.887 214.56 135.895 214.186 138.023C213.559 143.585 218.317 146.674 222.599 149.236C229.21 153.251 236.871 155.197 244.597 154.823Z" fill="white"/>
<g style="mix-blend-mode:multiply" opacity="0.5">
<path fill-rule="evenodd" clip-rule="evenodd" d="M214.927 142.38C216.183 135.725 229.731 141.903 241.408 148.344C253.085 154.786 238.972 156.079 229.379 152.475C223.762 150.432 218.779 146.951 214.927 142.38Z" fill="#D6C1FF"/>
</g>
<g style="mix-blend-mode:multiply" opacity="0.5">
<path fill-rule="evenodd" clip-rule="evenodd" d="M274.82 215.017C275.699 208.739 296.052 223.053 294.156 226.041C292.26 229.029 285.831 228.941 282.014 225.087C279.231 222.022 276.817 218.643 274.82 215.017Z" fill="#D6C1FF"/>
</g>
<g style="mix-blend-mode:multiply" opacity="0.5">
<path fill-rule="evenodd" clip-rule="evenodd" d="M286.61 239.89C286.095 236.714 294.558 240.681 297.232 242.226C299.907 243.77 295.977 245.716 291.909 244.298C290.779 243.948 289.729 243.379 288.82 242.623C287.91 241.866 287.159 240.938 286.61 239.89Z" fill="#D6C1FF"/>
</g>
<path fill-rule="evenodd" clip-rule="evenodd" d="M870.066 308.961C869.25 309.802 852.713 307.454 832.774 304.817C829.434 301.552 825.78 297.283 805.038 291.985C796.11 289.7 743.099 279.793 742.923 283.057C742.81 285.38 743.224 285.43 737.135 286.699C714.207 291.533 679.377 279.24 658.031 274.758C641.646 271.305 624.707 267.387 608.573 263.131C577.986 255.045 594.523 255.195 610.933 256.112C612.88 256.225 615.014 256.112 617.061 256.112C609.527 249.734 594.887 244.648 586.098 245.791C582.331 246.256 579.907 252.069 553.226 247.875C528.804 240.593 504.483 232.908 480.526 224.27C467.417 219.473 460.436 216.887 448.219 212.229L445.708 211.249C441.464 201.33 483.05 208.977 491.55 210.232C489.265 184.379 510.799 166.65 535.333 165.746C567 164.578 588.433 195.755 593.782 224.144C606.049 202.008 616.483 219.988 616.483 219.988C621.129 174.636 650.133 126.923 699.542 123.131C752.528 119.062 778.645 171.082 783.868 216.774C817.632 218.469 824.048 251.931 814.744 278.299C822.943 283.786 861.201 303.222 868.823 307.944C869.676 308.509 870.154 308.86 870.066 308.961Z" fill="url(#paint3_linear_29_464)"/>
<g style="mix-blend-mode:multiply" opacity="0.5">
<path fill-rule="evenodd" clip-rule="evenodd" d="M870.066 308.961C869.25 309.803 852.713 307.455 832.774 304.818C829.434 301.553 825.78 297.284 805.038 291.985C796.11 289.7 743.099 279.794 742.923 283.058C742.81 285.381 743.224 285.431 737.135 286.699C714.207 291.533 679.377 279.241 658.031 274.759C641.646 271.306 624.707 267.388 608.573 263.132C577.986 255.045 594.523 255.196 610.933 256.113C612.88 256.226 615.014 256.113 617.061 256.113C609.527 249.734 594.887 244.649 586.098 245.792C582.331 246.256 579.907 252.07 553.226 247.876C528.804 240.593 504.483 232.909 480.526 224.271C467.417 219.474 460.436 216.888 448.219 212.229C448.219 212.229 466.953 209.065 506.881 222.425L503.504 217.729C503.504 217.729 552.221 213.372 582.255 225.677C608.41 236.412 595.201 240.619 591.359 241.535C601.571 239.855 612.053 241.222 621.493 245.465C637.954 252.873 624.532 253.338 624.532 253.338L643.228 257.029C643.228 257.029 621.091 240.292 623.879 236.362C626.666 232.432 659.325 214.853 723.134 218.708C786.944 222.563 756.144 251.454 756.144 251.454C756.144 251.454 810.136 273.892 812.433 276.102C814.731 278.312 796.763 280.007 796.763 280.007C796.763 280.007 842.191 298.841 868.81 307.969C869.676 308.509 870.154 308.861 870.066 308.961Z" fill="#D6C1FF"/>
</g>
<path fill-rule="evenodd" clip-rule="evenodd" d="M616.433 219.951C616.433 231.326 703.296 216.058 739.997 208.964C776.699 201.87 735.942 128.116 694.268 123.671C652.594 119.226 616.383 188.95 616.433 219.951Z" fill="white"/>
<path fill-rule="evenodd" clip-rule="evenodd" d="M762.397 251.579C767.633 241.371 799.061 230.347 811.153 240.279C823.244 250.211 818.209 269.447 810.387 270.326C802.564 271.205 762.397 251.579 762.397 251.579Z" fill="white"/>
<path fill-rule="evenodd" clip-rule="evenodd" d="M801.66 282.029C801.66 282.029 816.238 273.026 834.783 282.87C853.328 292.714 852.638 302.131 851.759 301.792C850.88 301.453 801.66 282.029 801.66 282.029Z" fill="white"/>
<path fill-rule="evenodd" clip-rule="evenodd" d="M597.95 237.505C597.95 237.505 604.831 230.423 614.11 231.805C623.389 233.186 628.185 249.132 628.663 249.647C629.14 250.162 602.709 237.53 597.95 237.505Z" fill="white"/>
<path fill-rule="evenodd" clip-rule="evenodd" d="M595.376 229.293C589.651 231.943 600.01 213.648 608.259 215.557C616.508 217.465 621.254 225.476 620.501 226.707C619.748 227.937 610.77 222.161 595.376 229.293Z" fill="white"/>
<path fill-rule="evenodd" clip-rule="evenodd" d="M521.961 215.481C501.871 210.885 504.772 167.768 539.301 166.789C573.83 165.809 590.856 219.913 590.781 223.944C590.706 227.974 524.071 216.008 521.961 215.481Z" fill="white"/>
<path fill-rule="evenodd" clip-rule="evenodd" d="M462.232 208.361C472.766 205.951 489.453 209.893 497.301 212.631C505.148 215.368 512.958 225.362 512.255 226.279C511.552 227.196 475.504 224.144 462.232 208.361Z" fill="white"/>
<path fill-rule="evenodd" clip-rule="evenodd" d="M495.392 208.576C494.137 210.17 502.436 214.088 508.953 215.055L515.47 216.022C515.47 216.022 502.738 199.548 495.392 208.576Z" fill="white"/>
<path fill-rule="evenodd" clip-rule="evenodd" d="M764.482 245.403C764.482 245.403 775.669 241.887 779.938 235.848C784.207 229.808 782.675 226.707 781.269 225.966C779.863 225.225 768.236 224.372 764.482 245.403Z" fill="white"/>
<g style="mix-blend-mode:soft-light" opacity="0.84">
<path fill-rule="evenodd" clip-rule="evenodd" d="M631.199 244.649C622.924 228.816 705.832 223.304 734.724 236.487C763.615 249.671 695.235 261.939 695.235 261.939C695.235 261.939 735.414 252.66 772.455 262.303C809.495 271.946 807.323 277.508 788.991 278.952C770.659 280.396 708.858 279.881 676.978 271.632C645.098 263.383 631.199 244.649 631.199 244.649Z" fill="#8ECEFF"/>
</g>
<g style="mix-blend-mode:soft-light" opacity="0.84">
<path fill-rule="evenodd" clip-rule="evenodd" d="M514.427 226.97C510.372 218.859 549.999 218.181 573.127 224.66C596.255 231.139 600.75 247.085 566.56 246.193C532.37 245.302 514.427 226.97 514.427 226.97Z" fill="#8ECEFF"/>
</g>
<g style="mix-blend-mode:soft-light" opacity="0.84">
<path fill-rule="evenodd" clip-rule="evenodd" d="M590.768 243.832C590.768 243.832 596.946 240.203 609.226 242.376C621.506 244.548 628.06 251.818 626.239 252.157C624.419 252.496 601.893 250.637 590.768 243.832Z" fill="#8ECEFF"/>
</g>
<g style="mix-blend-mode:multiply" opacity="0.3">
<path fill-rule="evenodd" clip-rule="evenodd" d="M659.852 222.249C641.733 227.56 688.266 230.624 717.246 229.343C746.225 228.063 752.491 224.145 752.491 224.145C752.491 224.145 706.134 208.638 659.852 222.249Z" fill="#D6C1FF"/>
</g>
<g style="mix-blend-mode:multiply" opacity="0.3">
<path fill-rule="evenodd" clip-rule="evenodd" d="M744.053 282.506C731.321 281.489 745.208 272.85 778.858 279.756C812.509 286.662 827.3 296.656 827.3 296.656C827.3 296.656 783.04 284.741 744.053 282.506Z" fill="#D6C1FF"/>
</g>
<g style="mix-blend-mode:multiply" opacity="0.5">
<path fill-rule="evenodd" clip-rule="evenodd" d="M591.836 257.432C592.677 256.088 626.214 256.49 649.807 263.546C665.941 268.603 681.717 274.736 697.03 281.903C697.03 281.903 663.455 275.538 630.169 268.531C596.883 261.525 591.836 257.432 591.836 257.432Z" fill="#D6C1FF"/>
</g>
<path opacity="0.3" fill-rule="evenodd" clip-rule="evenodd" d="M758.367 244.423C832.448 251.894 908.688 204.708 1029.48 196.647C1150.27 188.586 1116.68 221.068 1221.36 209.806C1326.04 198.543 1302.27 182.71 1353.9 171.773C1384.32 165.332 1415.1 180.01 1405.8 185.02C1396.49 190.03 1480.96 183.589 1487.41 183.589C1493.86 183.589 1422.5 197.476 1255.5 209.68C1088.5 221.885 1076.55 212.191 979.203 217.214C881.856 222.236 838.889 240.844 799.526 244.423C760.162 248.001 758.367 244.423 758.367 244.423Z" fill="url(#paint4_linear_29_464)"/>
<path opacity="0.3" fill-rule="evenodd" clip-rule="evenodd" d="M468.836 111.843C468.836 111.843 635.543 183.539 767.671 196.597C899.798 209.655 988.658 189.252 1080.32 183.526C1171.98 177.8 1188.4 180.663 1193.41 179.232C1198.42 177.8 1112.88 169.187 1055.97 174.209C999.067 179.232 989.675 191.399 957.104 192.88C924.534 194.362 945.302 186.803 927.761 188.95C910.22 191.097 860.975 204.181 791.49 196.647C722.004 189.113 751.235 188.774 726.537 178.303C701.839 167.831 593.003 94.1519 468.836 111.843Z" fill="url(#paint5_linear_29_464)"/>
<g style="mix-blend-mode:soft-light">
<path fill-rule="evenodd" clip-rule="evenodd" d="M915.054 215.997C944.649 210.623 989.75 208.739 1030.28 204.985C1070.81 201.231 1050.13 197.903 1060.88 196.648C1071.63 195.392 1094.07 199.761 1105.34 200.904C1116.62 202.047 1117.55 200.703 1117.55 200.703C1117.55 200.703 1098.91 194.124 1048.8 195.681C998.69 197.238 915.054 215.997 915.054 215.997Z" fill="white"/>
</g>
<g style="mix-blend-mode:soft-light">
<path fill-rule="evenodd" clip-rule="evenodd" d="M1250.11 207.006C1290.91 201.983 1367.5 185.924 1389.33 184.493C1411.17 183.061 1409.74 170.518 1371.08 170.166C1332.42 169.815 1324.62 187.506 1300.09 195.417C1283.73 200.494 1267.03 204.367 1250.11 207.006Z" fill="white"/>
</g>
</g>
</g>
<defs>
<linearGradient id="paint0_linear_29_464" x1="294.762" y1="450.389" x2="337.732" y2="184.508" gradientUnits="userSpaceOnUse">
<stop stop-color="#55B328" stop-opacity="0.1"/>
<stop offset="0.07" stop-color="#72BE4E" stop-opacity="0.26"/>
<stop offset="0.16" stop-color="#91CB77" stop-opacity="0.43"/>
<stop offset="0.26" stop-color="#ADD59C" stop-opacity="0.58"/>
<stop offset="0.35" stop-color="#C4DFBA" stop-opacity="0.71"/>
<stop offset="0.46" stop-color="#D7E6D3" stop-opacity="0.82"/>
<stop offset="0.56" stop-color="#E6ECE7" stop-opacity="0.9"/>
<stop offset="0.68" stop-color="#F0F0F4" stop-opacity="0.96"/>
<stop offset="0.81" stop-color="#F6F2FC" stop-opacity="0.99"/>
<stop offset="0.99" stop-color="#F8F3FF"/>
</linearGradient>
<linearGradient id="paint1_linear_29_464" x1="1047.81" y1="410.151" x2="1047.81" y2="226.769" gradientUnits="userSpaceOnUse">
<stop offset="0.29" stop-color="#55B328"/>
<stop offset="0.3" stop-color="#5CB631"/>
<stop offset="0.37" stop-color="#80C461"/>
<stop offset="0.44" stop-color="#A0D18B"/>
<stop offset="0.51" stop-color="#BBDBAF"/>
<stop offset="0.59" stop-color="#D1E4CC"/>
<stop offset="0.67" stop-color="#E3EBE3"/>
<stop offset="0.76" stop-color="#EFEFF3"/>
<stop offset="0.86" stop-color="#F6F2FC"/>
<stop offset="0.99" stop-color="#F8F3FF"/>
</linearGradient>
<linearGradient id="paint2_linear_29_464" x1="1352.93" y1="383.62" x2="1352.93" y2="249.433" gradientUnits="userSpaceOnUse">
<stop stop-color="#E0F5F8"/>
<stop offset="0.22" stop-color="#ECF4FB"/>
<stop offset="0.55" stop-color="#F5F3FE"/>
<stop offset="0.99" stop-color="#F8F3FF"/>
</linearGradient>
<linearGradient id="paint3_linear_29_464" x1="656.545" y1="303.8" x2="661.184" y2="121.783" gradientUnits="userSpaceOnUse">
<stop stop-color="#B8E8F0"/>
<stop offset="0.12" stop-color="#CCEFF4"/>
<stop offset="0.3" stop-color="#E3F6F9"/>
<stop offset="0.49" stop-color="#F3FBFC"/>
<stop offset="0.7" stop-color="#FCFEFE"/>
<stop offset="0.99" stop-color="white"/>
</linearGradient>
<linearGradient id="paint4_linear_29_464" x1="1123.08" y1="246.017" x2="1123.08" y2="170.166" gradientUnits="userSpaceOnUse">
<stop stop-color="#92D4F0"/>
<stop offset="0.11" stop-color="#AFE0F4"/>
<stop offset="0.25" stop-color="#CCEBF8"/>
<stop offset="0.4" stop-color="#E3F4FB"/>
<stop offset="0.56" stop-color="#F3FAFD"/>
<stop offset="0.75" stop-color="#FCFEFF"/>
<stop offset="0.99" stop-color="white"/>
</linearGradient>
<linearGradient id="paint5_linear_29_464" x1="831.18" y1="200.879" x2="831.18" y2="109.106" gradientUnits="userSpaceOnUse">
<stop stop-color="#92D4F0"/>
<stop offset="0.11" stop-color="#AFE0F4"/>
<stop offset="0.25" stop-color="#CCEBF8"/>
<stop offset="0.4" stop-color="#E3F4FB"/>
<stop offset="0.56" stop-color="#F3FAFD"/>
<stop offset="0.75" stop-color="#FCFEFF"/>
<stop offset="0.99" stop-color="white"/>
</linearGradient>
</defs>
</svg>
