<svg width="81" height="85" viewBox="0 0 81 85" fill="none" xmlns="http://www.w3.org/2000/svg">
<path d="M69.746 4.65891C66.9568 4.66114 64.2825 5.77014 62.3102 7.74241C60.3379 9.71468 59.2289 12.389 59.2267 15.1782C59.2267 16.6804 59.5549 18.1068 60.1272 19.407L51.901 28.6598C49.1065 26.7309 45.7914 25.6977 42.3958 25.6976C39.2821 25.6976 36.404 26.6064 33.9004 28.0791L24.332 18.515L24.2352 18.6117C25.0599 16.9371 25.5649 15.073 25.5649 13.0744C25.5649 10.5777 24.8245 8.13717 23.4375 6.0613C22.0504 3.98543 20.0789 2.36748 17.7724 1.41206C15.4658 0.456641 12.9277 0.20666 10.479 0.693729C8.03036 1.1808 5.78112 2.38304 4.01573 4.14842C2.25035 5.91381 1.04811 8.16305 0.561038 10.6117C0.0739696 13.0604 0.323951 15.5985 1.27937 17.9051C2.23479 20.2116 3.85273 22.1831 5.92861 23.5702C8.00448 24.9572 10.445 25.6976 12.9417 25.6976C14.9403 25.6976 16.8002 25.1926 18.479 24.3679L18.3823 24.4647L27.9506 34.0289C26.4049 36.5957 25.5806 39.5322 25.5649 42.5285C25.5649 46.7236 27.1638 50.519 29.7095 53.4728L18.8662 64.3119C17.6508 63.8254 16.3546 63.5727 15.0455 63.5671C9.24729 63.5671 4.52622 68.284 4.52622 74.0864C4.52622 79.8889 9.24729 84.6058 15.0455 84.6058C20.8438 84.6058 25.5649 79.8889 25.5649 74.0864C25.5649 72.7358 25.2872 71.4524 24.8201 70.2616L36.7616 58.3201C38.5331 58.9512 40.4097 59.3594 42.3958 59.3594C51.678 59.3594 59.2267 51.8107 59.2267 42.5285C59.2267 39.8524 58.5408 37.3572 57.4258 35.106L66.3335 25.079C67.4107 25.4493 68.5468 25.6976 69.746 25.6976C75.5485 25.6976 80.2654 20.9807 80.2654 15.1782C80.2654 9.37577 75.5485 4.65891 69.746 4.65891ZM42.3958 50.9439C37.7547 50.9439 33.9803 47.1696 33.9803 42.5285C33.9803 37.8873 37.7547 34.113 42.3958 34.113C47.0369 34.113 50.8112 37.8873 50.8112 42.5285C50.8112 47.1696 47.0369 50.9439 42.3958 50.9439Z" fill="#ffffff"/>
</svg>
