<svg width="27" height="27" viewBox="0 0 27 27" fill="none" xmlns="http://www.w3.org/2000/svg">
<path d="M16.1095 5.23022C15.8943 5.61555 15.7026 6.0135 15.5353 6.42189C13.8916 6.16195 12.2173 6.16195 10.5736 6.42189C10.4064 6.0135 10.2146 5.61555 9.99948 5.23022C8.45116 5.49478 6.946 5.96856 5.52531 6.63856C2.98483 10.3049 1.8327 14.7559 2.27531 19.1944C3.9309 20.439 5.78906 21.3882 7.76781 22.0002C8.21838 21.405 8.6205 20.7747 8.97031 20.1152C8.32472 19.8772 7.70421 19.576 7.11781 19.2161C7.27864 19.109 7.43078 18.9895 7.57281 18.8586C9.28281 19.6822 11.1564 20.11 13.0545 20.11C14.9525 20.11 16.8261 19.6822 18.5361 18.8586C18.6878 18.9886 18.8395 19.1077 18.9911 19.2161C18.4015 19.5732 17.7817 19.8777 17.1386 20.1261C17.4739 20.8005 17.8653 21.4455 18.3086 22.0544C20.2849 21.4445 22.1399 20.495 23.7903 19.2486C24.2435 14.8093 23.0905 10.3546 20.5403 6.69272C19.1356 6.00886 17.6453 5.51695 16.1095 5.23022ZM9.45781 16.6594C8.91569 16.6205 8.40973 16.3731 8.04614 15.9691C7.68255 15.5651 7.4896 15.0359 7.50781 14.4927C7.48686 13.9488 7.67885 13.4181 8.04299 13.0136C8.40712 12.609 8.91469 12.3623 9.45781 12.3261C10.0009 12.3623 10.5085 12.609 10.8726 13.0136C11.2368 13.4181 11.4288 13.9488 11.4078 14.4927C11.4288 15.0366 11.2368 15.5673 10.8726 15.9719C10.5085 16.3765 10.0009 16.6231 9.45781 16.6594ZM16.6511 16.6594C16.109 16.6205 15.6031 16.3731 15.2395 15.9691C14.8759 15.5651 14.6829 15.0359 14.7011 14.4927C14.6802 13.9488 14.8722 13.4181 15.2363 13.0136C15.6005 12.609 16.108 12.3623 16.6511 12.3261C17.1953 12.3596 17.7045 12.6055 18.0692 13.0107C18.4339 13.4159 18.6249 13.9481 18.6011 14.4927C18.6249 15.0374 18.4339 15.5696 18.0692 15.9748C17.7045 16.38 17.1953 16.6258 16.6511 16.6594Z" fill="#55B328"/>
</svg>
