<svg width="109" height="64" viewBox="0 0 109 64" fill="none" xmlns="http://www.w3.org/2000/svg">
<path d="M38.3636 34.2064C40.3162 32.2538 43.482 32.2538 45.4346 34.2064L60.6906 49.4624C62.6433 51.4151 65.8091 51.4151 67.7617 49.4624L92.5458 24.6783C94.4985 22.7257 97.6643 22.7257 99.6169 24.6783L100.345 25.4063C103.495 28.5561 108.88 26.3253 108.88 21.8707V5.45117C108.88 2.68975 106.642 0.451172 103.88 0.451172H87.4608C83.0063 0.451172 80.7754 5.83688 83.9253 8.98671L84.6532 9.71464C86.6058 11.6673 86.6058 14.8331 84.6532 16.7857L67.7617 33.6772C65.8091 35.6298 62.6433 35.6298 60.6907 33.6772L45.4346 18.4212C43.482 16.4686 40.3162 16.4685 38.3636 18.4212L2.41591 54.3688C0.463286 56.3214 0.463282 59.4873 2.4159 61.4399L3.23746 62.2615C5.19009 64.2141 8.35591 64.2141 10.3085 62.2615L38.3636 34.2064Z" fill="#ffffff"/>
</svg>
