<svg width="27" height="27" viewBox="0 0 27 27" fill="none" xmlns="http://www.w3.org/2000/svg">
<path d="M22.7471 9.61239C22.7362 8.7919 22.5826 7.97957 22.2932 7.21173C22.0422 6.56406 21.6589 5.97586 21.1678 5.48471C20.6766 4.99356 20.0884 4.61026 19.4408 4.35931C18.6828 4.07478 17.882 3.92093 17.0726 3.90431C16.0304 3.85773 15.7 3.84473 13.0545 3.84473C10.409 3.84473 10.0699 3.84473 9.03535 3.90431C8.22627 3.92105 7.4259 4.0749 6.66827 4.35931C6.0205 4.61009 5.43221 4.99332 4.94104 5.4845C4.44987 5.97567 4.06663 6.56396 3.81585 7.21173C3.53075 7.96912 3.37724 8.76968 3.36194 9.57881C3.31535 10.6221 3.30127 10.9525 3.30127 13.598C3.30127 16.2435 3.30127 16.5815 3.36194 17.6171C3.37819 18.4275 3.53094 19.227 3.81585 19.9864C4.06705 20.634 4.45057 21.222 4.94191 21.713C5.43324 22.2039 6.02159 22.587 6.66935 22.8377C7.42491 23.1337 8.22542 23.2986 9.03644 23.3252C10.0797 23.3718 10.4101 23.3859 13.0556 23.3859C15.7011 23.3859 16.0402 23.3859 17.0748 23.3252C17.8842 23.3093 18.685 23.1558 19.4429 22.8713C20.0904 22.6201 20.6785 22.2367 21.1696 21.7456C21.6607 21.2544 22.0441 20.6664 22.2954 20.0189C22.5803 19.2606 22.733 18.4611 22.7493 17.6496C22.7959 16.6075 22.8099 16.2771 22.8099 13.6305C22.8078 10.985 22.8078 10.6491 22.7471 9.61239ZM13.048 18.6008C10.2812 18.6008 8.03977 16.3594 8.03977 13.5926C8.03977 10.8257 10.2812 8.58431 13.048 8.58431C14.3763 8.58431 15.6502 9.11196 16.5894 10.0512C17.5286 10.9904 18.0563 12.2643 18.0563 13.5926C18.0563 14.9208 17.5286 16.1947 16.5894 17.1339C15.6502 18.0732 14.3763 18.6008 13.048 18.6008ZM18.2556 9.56689C18.1022 9.56703 17.9503 9.53693 17.8085 9.47829C17.6668 9.41965 17.538 9.33363 17.4295 9.22516C17.321 9.11669 17.235 8.98789 17.1764 8.84614C17.1177 8.70439 17.0876 8.55246 17.0878 8.39906C17.0878 8.24577 17.118 8.09398 17.1766 7.95236C17.2353 7.81073 17.3213 7.68205 17.4297 7.57366C17.5381 7.46527 17.6667 7.37928 17.8084 7.32062C17.95 7.26196 18.1018 7.23177 18.2551 7.23177C18.4084 7.23177 18.5601 7.26196 18.7018 7.32062C18.8434 7.37928 18.9721 7.46527 19.0805 7.57366C19.1889 7.68205 19.2748 7.81073 19.3335 7.95236C19.3922 8.09398 19.4224 8.24577 19.4224 8.39906C19.4224 9.04473 18.9002 9.56689 18.2556 9.56689Z" fill="#55B328"/>
<path d="M13.0479 16.8459C14.8446 16.8459 16.3012 15.3893 16.3012 13.5926C16.3012 11.7959 14.8446 10.3394 13.0479 10.3394C11.2512 10.3394 9.79468 11.7959 9.79468 13.5926C9.79468 15.3893 11.2512 16.8459 13.0479 16.8459Z" fill="#55B328"/>
</svg>
