<svg width="10" height="10" viewBox="0 0 60 85" fill="none" xmlns="http://www.w3.org/2000/svg">
<path d="M17.5899 80.4095C17.5899 78.0853 19.4741 76.2012 21.7983 76.2012H38.6316C40.9558 76.2012 42.8399 78.0853 42.8399 80.4095C42.8399 82.7337 40.9558 84.6178 38.6316 84.6178H21.7983C19.4741 84.6178 17.5899 82.7337 17.5899 80.4095ZM50.861 49.7392C55.1956 44.6639 59.6733 39.4161 59.6733 29.9095C59.6733 13.6695 46.4549 0.451172 30.2149 0.451172C13.975 0.451172 0.756592 13.6695 0.756592 29.9095C0.756592 39.5256 5.24688 44.7565 9.5983 49.8149C11.1049 51.574 12.6662 53.3962 14.1601 55.492C14.6699 56.2212 15.4536 58.6895 16.2182 61.7722C16.4468 62.6937 15.7426 63.5762 14.7931 63.5762C13.9764 63.5762 13.3143 64.2383 13.3143 65.055V67.7845C13.3143 70.1087 15.1984 71.9928 17.5226 71.9928H42.9073C45.2315 71.9928 47.1156 70.1087 47.1156 67.7845V65.0499C47.1156 64.236 46.4558 63.5762 45.6418 63.5762C44.6946 63.5762 43.9926 62.6951 44.2217 61.7761C44.9929 58.6828 45.7799 56.205 46.2866 55.4751C47.7679 53.3583 49.3418 51.5193 50.861 49.7392Z" fill="white"/>
</svg>
