<svg width="25" height="27" viewBox="0 0 25 27" fill="none" xmlns="http://www.w3.org/2000/svg">
<path d="M19.6874 9.27874C19.7004 9.46832 19.7004 9.65682 19.7004 9.84532C19.7004 15.6141 15.6474 22.2614 8.24044 22.2614C5.95844 22.2614 3.83844 21.5453 2.05444 20.3017C2.37844 20.3417 2.69044 20.3558 3.02744 20.3558C4.84044 20.3606 6.60209 19.7038 8.02844 18.4914C7.18786 18.4749 6.37302 18.1745 5.69768 17.632C5.02234 17.0896 4.52023 16.3322 4.26144 15.4657C4.51044 15.5057 4.76044 15.5328 5.02244 15.5328C5.38344 15.5328 5.74644 15.4787 6.08344 15.3844C5.1712 15.1849 4.35092 14.6492 3.76206 13.8685C3.17321 13.0878 2.85214 12.1102 2.85344 11.102V11.0478C3.39044 11.3717 4.01344 11.5743 4.67344 11.6014C4.12053 11.2034 3.66716 10.6633 3.35378 10.0293C3.0404 9.39526 2.87676 8.68708 2.87744 7.96791C2.87744 7.15757 3.07644 6.41441 3.42544 5.76657C4.43758 7.11534 5.69995 8.21876 7.13078 9.00537C8.56161 9.79197 10.129 10.2442 11.7314 10.3328C11.6694 10.0078 11.6314 9.67091 11.6314 9.33291C11.6312 8.75978 11.7352 8.19222 11.9375 7.66267C12.1399 7.13311 12.4365 6.65195 12.8106 6.24669C13.1847 5.84143 13.6289 5.52002 14.1177 5.30082C14.6065 5.08163 15.1304 4.96895 15.6594 4.96924C16.8194 4.96924 17.8664 5.49574 18.6024 6.34724C19.5042 6.15832 20.369 5.8017 21.1584 5.29316C20.8579 6.30154 20.2282 7.1566 19.3874 7.69816C20.1872 7.59933 20.9689 7.37148 21.7064 7.02216C21.1556 7.89218 20.473 8.65511 19.6874 9.27874Z" fill="#55B328"/>
</svg>
